<svg width="34" height="34" viewBox="0 0 34 34" fill="none" xmlns="http://www.w3.org/2000/svg">
<g id="add_icon_dvr">
<g id="&#229;&#155;&#190;&#229;&#177;&#130;_1" clip-path="url(#clip0_2153_8564)">
<path id="Vector" d="M28.65 8H6.29C5.41744 8 4.58061 8.34662 3.96362 8.96362C3.34662 9.58061 3 10.4174 3 11.29L3 22.65C3 23.5226 3.34662 24.3594 3.96362 24.9764C4.58061 25.5934 5.41744 25.94 6.29 25.94H8.84V27.06C8.84 27.3915 8.9717 27.7095 9.20612 27.9439C9.44054 28.1783 9.75848 28.31 10.09 28.31C10.4215 28.31 10.7395 28.1783 10.9739 27.9439C11.2083 27.7095 11.34 27.3915 11.34 27.06V25.94H23.6V27.06C23.6 27.3915 23.7317 27.7095 23.9661 27.9439C24.2005 28.1783 24.5185 28.31 24.85 28.31C25.1815 28.31 25.4995 28.1783 25.7339 27.9439C25.9683 27.7095 26.1 27.3915 26.1 27.06V25.94H28.65C29.5226 25.94 30.3594 25.5934 30.9764 24.9764C31.5934 24.3594 31.94 23.5226 31.94 22.65V11.29C31.94 10.858 31.8549 10.4301 31.6896 10.031C31.5242 9.63181 31.2819 9.26912 30.9764 8.96362C30.6709 8.65811 30.3082 8.41577 29.909 8.25044C29.5099 8.0851 29.082 8 28.65 8ZM29.44 22.65C29.44 22.8595 29.3568 23.0605 29.2086 23.2086C29.0605 23.3568 28.8595 23.44 28.65 23.44H6.29C6.08048 23.44 5.87954 23.3568 5.73139 23.2086C5.58323 23.0605 5.5 22.8595 5.5 22.65V11.29C5.5 11.0805 5.58323 10.8795 5.73139 10.7314C5.87954 10.5832 6.08048 10.5 6.29 10.5H28.65C28.8595 10.5 29.0605 10.5832 29.2086 10.7314C29.3568 10.8795 29.44 11.0805 29.44 11.29V22.65Z" fill="#070707"/>
<path id="Vector_2" d="M27.1404 20.6613H22.5504C22.2454 20.6613 21.9529 20.5401 21.7372 20.3245C21.5216 20.1088 21.4004 19.8163 21.4004 19.5113V14.4313C21.4004 14.1263 21.5216 13.8338 21.7372 13.6181C21.9529 13.4025 22.2454 13.2813 22.5504 13.2813H27.1404C27.2918 13.28 27.4419 13.3088 27.5821 13.3661C27.7222 13.4234 27.8495 13.5081 27.9565 13.6151C28.0636 13.7222 28.1482 13.8495 28.2056 13.9896C28.2629 14.1298 28.2917 14.2799 28.2904 14.4313V19.5113C28.2917 19.6627 28.2629 19.8128 28.2056 19.953C28.1482 20.0931 28.0636 20.2204 27.9565 20.3274C27.8495 20.4345 27.7222 20.5192 27.5821 20.5765C27.4419 20.6338 27.2918 20.6626 27.1404 20.6613ZM23.7004 18.3613H26.0004V15.5813H23.7004V18.3613Z" fill="#18C6C1"/>
<path id="Vector_3" d="M8.99961 15.6398H7.74961C7.44461 15.6398 7.1521 15.5187 6.93644 15.303C6.72077 15.0873 6.59961 14.7948 6.59961 14.4898C6.59961 14.1848 6.72077 13.8923 6.93644 13.6767C7.1521 13.461 7.44461 13.3398 7.74961 13.3398H8.99961C9.30461 13.3398 9.59712 13.461 9.81278 13.6767C10.0284 13.8923 10.1496 14.1848 10.1496 14.4898C10.1496 14.7948 10.0284 15.0873 9.81278 15.303C9.59712 15.5187 9.30461 15.6398 8.99961 15.6398Z" fill="#18C6C1"/>
<path id="Vector_4" d="M13.9995 15.6398H12.6695C12.3645 15.6398 12.072 15.5187 11.8564 15.303C11.6407 15.0873 11.5195 14.7948 11.5195 14.4898C11.5195 14.1848 11.6407 13.8923 11.8564 13.6767C12.072 13.461 12.3645 13.3398 12.6695 13.3398H13.9995C14.3045 13.3398 14.597 13.461 14.8127 13.6767C15.0284 13.8923 15.1495 14.1848 15.1495 14.4898C15.1495 14.7948 15.0284 15.0873 14.8127 15.303C14.597 15.5187 14.3045 15.6398 13.9995 15.6398Z" fill="#18C6C1"/>
<path id="Vector_5" d="M18.8795 15.6398H17.5895C17.2845 15.6398 16.9919 15.5187 16.7763 15.303C16.5606 15.0873 16.4395 14.7948 16.4395 14.4898C16.4395 14.1848 16.5606 13.8923 16.7763 13.6767C16.9919 13.461 17.2845 13.3398 17.5895 13.3398H18.8795C19.1845 13.3398 19.477 13.461 19.6926 13.6767C19.9083 13.8923 20.0295 14.1848 20.0295 14.4898C20.0295 14.7948 19.9083 15.0873 19.6926 15.303C19.477 15.5187 19.1845 15.6398 18.8795 15.6398Z" fill="#18C6C1"/>
<path id="Vector_6" d="M8.99961 20.6008H7.74961C7.44461 20.6008 7.1521 20.4796 6.93644 20.264C6.72077 20.0483 6.59961 19.7558 6.59961 19.4508C6.59961 19.1458 6.72077 18.8533 6.93644 18.6376C7.1521 18.4219 7.44461 18.3008 7.74961 18.3008H8.99961C9.30461 18.3008 9.59712 18.4219 9.81278 18.6376C10.0284 18.8533 10.1496 19.1458 10.1496 19.4508C10.1496 19.7558 10.0284 20.0483 9.81278 20.264C9.59712 20.4796 9.30461 20.6008 8.99961 20.6008Z" fill="#18C6C1"/>
<path id="Vector_7" d="M13.9995 20.6008H12.6695C12.3645 20.6008 12.072 20.4796 11.8564 20.264C11.6407 20.0483 11.5195 19.7558 11.5195 19.4508C11.5195 19.1458 11.6407 18.8533 11.8564 18.6376C12.072 18.4219 12.3645 18.3008 12.6695 18.3008H13.9995C14.3045 18.3008 14.597 18.4219 14.8127 18.6376C15.0284 18.8533 15.1495 19.1458 15.1495 19.4508C15.1495 19.7558 15.0284 20.0483 14.8127 20.264C14.597 20.4796 14.3045 20.6008 13.9995 20.6008Z" fill="#18C6C1"/>
<path id="Vector_8" d="M18.8795 20.6008H17.5895C17.2845 20.6008 16.9919 20.4796 16.7763 20.264C16.5606 20.0483 16.4395 19.7558 16.4395 19.4508C16.4395 19.1458 16.5606 18.8533 16.7763 18.6376C16.9919 18.4219 17.2845 18.3008 17.5895 18.3008H18.8795C19.1845 18.3008 19.477 18.4219 19.6926 18.6376C19.9083 18.8533 20.0295 19.1458 20.0295 19.4508C20.0295 19.7558 19.9083 20.0483 19.6926 20.264C19.477 20.4796 19.1845 20.6008 18.8795 20.6008Z" fill="#18C6C1"/>
</g>
</g>
<defs>
<clipPath id="clip0_2153_8564">
<rect width="28.94" height="20.31" fill="white" transform="translate(3 8)"/>
</clipPath>
</defs>
</svg>
