<svg width="28" height="28" viewBox="0 0 28 28" fill="none" xmlns="http://www.w3.org/2000/svg">
<g id="home_icon_dont_pre">
<path id="Vector" d="M26 23.218C25.9052 20.9346 24.8012 18.9097 23.1388 17.6042V11.4089C23.1388 7.83097 20.6594 4.82075 17.3824 4.1096V3.96792C17.3824 2.33582 16.0851 1 14.5 1C12.9148 1 11.6176 2.33585 11.6176 3.96792V4.1096C8.34059 4.82075 5.86121 7.83099 5.86121 11.4089V17.6042C4.19877 18.9096 3.09476 20.9346 3 23.218H5.86121V23.2373H23.1388V23.218H26ZM13.8919 27.5384H14.6077C16.4826 27.5384 18.042 26.0784 18.2684 24.208H10.74C10.9663 26.0784 12.5257 27.5384 14.4007 27.5384H13.8919Z" fill="url(#paint0_linear_29_1046)"/>
</g>
<defs>
<linearGradient id="paint0_linear_29_1046" x1="14.8675" y1="5.32011" x2="14.8675" y2="23.788" gradientUnits="userSpaceOnUse">
<stop stop-color="#69CAFF"/>
<stop offset="1" stop-color="#65A2FC"/>
</linearGradient>
</defs>
</svg>
